# xmcd
# 
# Track frame offsets:
#     150
#     12047
#     30486
#     46111
#     61473
#     76255
#     93254
#     107856
#     124151
#     139858
#     154755
#     175184
#     188280
#     211889
#     227544
#     231603
#     250283
#     270870
#     290007
# 
# Disc length: 4143
# 
# Revision: 1
# Processed by: cddbd v1.5.2PL0 Copyright (c) Steve Scherf et al.
# Submitted via: BonkEnc v1.0.8
# 
DISCID=f5102d13
DTITLE=Martina McBride - Greatest Hits
DYEAR=2001
DGENRE=Country
TTITLE0=My Baby Loves Me
TTITLE1=Life #9
TTITLE2=Independence Day
TTITLE3=Strangers
TTITLE4=Safe In The Arms Of Love
TTITLE5=Wild Angels
TTITLE6=Valentine
TTITLE7=A Broken Wing
TTITLE8=Happy Girl
TTITLE9=Wrong Again
TTITLE10=Whatever You Say
TTITLE11=I Love You
TTITLE12=Love's The Only House
TTITLE13=There You Are
TTITLE14=When God-Fearin' Women Get The Blues (Intro)
TTITLE15=When God-Fearin' Women Get The Blues
TTITLE16=Where Would You Be
TTITLE17=Concrete Angel
TTITLE18=Blessed
EXTD=YEAR: 2001
EXTT0=
EXTT1=
EXTT2=
EXTT3=
EXTT4=
EXTT5=
EXTT6=
EXTT7=
EXTT8=
EXTT9=
EXTT10=
EXTT11=
EXTT12=
EXTT13=
EXTT14=
EXTT15=
EXTT16=
EXTT17=
EXTT18=
PLAYORDER=
